<svg width="24" height="25" viewBox="0 0 24 25" fill="none" xmlns="http://www.w3.org/2000/svg">
<g clip-path="url(#clip0_380_639)">
<path d="M6.201 21.3154H1.84725V7.29493H6.201V21.3154ZM4.0215 5.38243C2.6295 5.38243 1.5 4.22893 1.5 2.83693C1.5 2.16819 1.76566 1.52683 2.23853 1.05396C2.7114 0.581087 3.35276 0.31543 4.0215 0.31543C4.69024 0.31543 5.3316 0.581087 5.80447 1.05396C6.27734 1.52683 6.543 2.16819 6.543 2.83693C6.543 4.22893 5.4135 5.38243 4.0215 5.38243ZM22.4955 21.3154H18.1515V14.4904C18.1515 12.8637 18.1185 10.7779 15.888 10.7779C13.6245 10.7779 13.2772 12.5449 13.2772 14.3734V21.3154H8.928V7.29493H13.1033V9.20743H13.164C13.7453 8.10568 15.165 6.94318 17.283 6.94318C21.6893 6.94318 22.4993 9.84493 22.4993 13.6137V21.3154H22.4955Z" fill="#AEAFB4"/>
</g>
<defs>
<clipPath id="clip0_380_639">
<rect width="24" height="24" fill="white" transform="translate(0 0.31543)"/>
</clipPath>
</defs>
</svg>
