<svg width="44" height="48" viewBox="0 0 44 48" fill="none" xmlns="http://www.w3.org/2000/svg">
<path d="M7.98999 37.851L22 45.9389L36.01 37.851" stroke="#E6E6E6" stroke-width="3" stroke-miterlimit="10" stroke-linecap="round" stroke-linejoin="round"/>
<path d="M17.01 4.94202L3 13.03V29.207" stroke="#E6E6E6" stroke-width="3" stroke-miterlimit="10" stroke-linecap="round" stroke-linejoin="round"/>
<path d="M41 29.208V13.03L26.99 4.94202" stroke="#E6E6E6" stroke-width="3" stroke-miterlimit="10" stroke-linecap="round" stroke-linejoin="round"/>
<path d="M27 5V12C27 13.657 24.761 15 22 15C19.239 15 17 13.657 17 12V5" stroke="#E6E6E6" stroke-width="3" stroke-miterlimit="10" stroke-linecap="round" stroke-linejoin="round"/>
<path d="M22 8C24.7614 8 27 6.65685 27 5C27 3.34315 24.7614 2 22 2C19.2386 2 17 3.34315 17 5C17 6.65685 19.2386 8 22 8Z" stroke="#E6E6E6" stroke-width="3" stroke-miterlimit="10" stroke-linecap="round" stroke-linejoin="round"/>
<path d="M3 13.03L22 24L41 13.03" stroke="#E6E6E6" stroke-width="3" stroke-miterlimit="10" stroke-linecap="round" stroke-linejoin="round"/>
<path d="M40.954 29.17L34.892 25.67C33.457 24.841 31.175 26.109 29.792 28.5C28.409 30.891 28.455 33.5 29.892 34.33L35.954 37.83" stroke="#E6E6E6" stroke-width="3" stroke-miterlimit="10" stroke-linecap="round" stroke-linejoin="round"/>
<path d="M40.954 29.17C39.52 28.341 37.237 29.609 35.854 32C34.471 34.391 34.518 37 35.954 37.83C37.39 38.66 39.672 37.392 41.054 35C42.436 32.608 42.389 30 40.954 29.17Z" stroke="#E6E6E6" stroke-width="3" stroke-miterlimit="10" stroke-linecap="round" stroke-linejoin="round"/>
<path d="M22 24V45.939" stroke="#E6E6E6" stroke-width="3" stroke-miterlimit="10" stroke-linecap="round" stroke-linejoin="round"/>
<path d="M8.04498 37.83L14.108 34.33C15.542 33.502 15.586 30.891 14.208 28.5C12.83 26.109 10.544 24.841 9.10798 25.67L3.04498 29.17" stroke="#E6E6E6" stroke-width="3" stroke-miterlimit="10" stroke-linecap="round" stroke-linejoin="round"/>
<path d="M8.14299 32C6.76299 29.608 4.47999 28.341 3.04299 29.17C1.60599 29.999 1.56499 32.608 2.94299 35C4.32099 37.392 6.60699 38.659 8.04299 37.83C9.47899 37.001 9.52399 34.391 8.14299 32Z" stroke="#E6E6E6" stroke-width="3" stroke-miterlimit="10" stroke-linecap="round" stroke-linejoin="round"/>
</svg>
