<svg width="24" height="25" viewBox="0 0 24 25" fill="none" xmlns="http://www.w3.org/2000/svg">
<path d="M11.9999 9.19122C10.2796 9.19122 8.87571 10.5951 8.87571 12.3154C8.87571 14.0358 10.2796 15.4397 11.9999 15.4397C13.7202 15.4397 15.1241 14.0358 15.1241 12.3154C15.1241 10.5951 13.7202 9.19122 11.9999 9.19122ZM21.3702 12.3154C21.3702 11.0217 21.382 9.73966 21.3093 8.44826C21.2366 6.94826 20.8945 5.61701 19.7976 4.52013C18.6984 3.42091 17.3695 3.08107 15.8695 3.00841C14.5757 2.93576 13.2937 2.94747 12.0023 2.94747C10.7085 2.94747 9.42649 2.93576 8.13508 3.00841C6.63508 3.08107 5.30383 3.42326 4.20696 4.52013C3.10774 5.61935 2.7679 6.94826 2.69524 8.44826C2.62258 9.74201 2.6343 11.024 2.6343 12.3154C2.6343 13.6068 2.62258 14.8912 2.69524 16.1826C2.7679 17.6826 3.11008 19.0139 4.20696 20.1108C5.30618 21.21 6.63508 21.5498 8.13508 21.6225C9.42883 21.6951 10.7109 21.6834 12.0023 21.6834C13.296 21.6834 14.5781 21.6951 15.8695 21.6225C17.3695 21.5498 18.7007 21.2076 19.7976 20.1108C20.8968 19.0115 21.2366 17.6826 21.3093 16.1826C21.3843 14.8912 21.3702 13.6092 21.3702 12.3154ZM11.9999 17.1225C9.33977 17.1225 7.1929 14.9756 7.1929 12.3154C7.1929 9.65529 9.33977 7.50841 11.9999 7.50841C14.6601 7.50841 16.807 9.65529 16.807 12.3154C16.807 14.9756 14.6601 17.1225 11.9999 17.1225ZM17.0038 8.43419C16.3827 8.43419 15.8812 7.93263 15.8812 7.31154C15.8812 6.69044 16.3827 6.18888 17.0038 6.18888C17.6249 6.18888 18.1265 6.69044 18.1265 7.31154C18.1267 7.45902 18.0978 7.60509 18.0414 7.74138C17.9851 7.87767 17.9024 8.0015 17.7981 8.10579C17.6938 8.21007 17.57 8.29276 17.4337 8.34911C17.2974 8.40547 17.1513 8.43438 17.0038 8.43419Z" fill="#AEAFB4"/>
</svg>
