<svg width="22" height="22" viewBox="0 0 22 22" fill="none" xmlns="http://www.w3.org/2000/svg">
<path d="M5.201 21.3154H0.84725V7.29493H5.201V21.3154ZM3.0215 5.38243C1.6295 5.38243 0.5 4.22893 0.5 2.83693C0.5 2.16819 0.765657 1.52683 1.23853 1.05396C1.7114 0.581087 2.35276 0.31543 3.0215 0.31543C3.69024 0.31543 4.3316 0.581087 4.80447 1.05396C5.27734 1.52683 5.543 2.16819 5.543 2.83693C5.543 4.22893 4.4135 5.38243 3.0215 5.38243ZM21.4955 21.3154H17.1515V14.4904C17.1515 12.8637 17.1185 10.7779 14.888 10.7779C12.6245 10.7779 12.2772 12.5449 12.2772 14.3734V21.3154H7.928V7.29493H12.1033V9.20743H12.164C12.7452 8.10568 14.165 6.94318 16.283 6.94318C20.6893 6.94318 21.4993 9.84493 21.4993 13.6137V21.3154H21.4955Z" fill="#AEAFB4"/>
</svg>
