<svg width="106" height="26" viewBox="0 0 106 26" fill="none" xmlns="http://www.w3.org/2000/svg">
<path d="M10.6405 6.56717V8.45143C9.69836 7.06595 8.22975 6.29008 6.31779 6.29008C2.79867 6.29008 0 9.39355 0 13.1621C0 16.9583 2.79867 20.0617 6.31779 20.0617C8.22975 20.0617 9.69836 19.2859 10.6405 17.9004V19.2305C10.6405 21.087 8.72852 22.3062 7.06595 22.3062C5.45879 22.3062 3.93476 21.8629 2.71554 20.9207L0.803578 23.6363C2.13364 24.9941 4.82147 25.7976 7.06595 25.7976C11.167 25.7976 14.5475 23.3592 14.5475 19.2305V6.56717H10.6405ZM7.2322 16.4318C5.34795 16.4318 3.82392 14.9909 3.82392 13.1621C3.82392 11.3609 5.34795 9.92003 7.2322 9.92003C9.14417 9.92003 10.6405 11.3332 10.6405 13.1621C10.6405 15.0186 9.14417 16.4318 7.2322 16.4318Z" fill="#ABACAD"/>
<path d="M23.0693 6.31779C19.0514 6.31779 16.0034 9.36584 16.0034 13.4114C16.0034 17.457 19.0514 20.4774 23.0693 20.4774C27.0595 20.4774 30.1353 17.457 30.1353 13.4114C30.1353 9.36584 27.0595 6.31779 23.0693 6.31779ZM23.0693 10.0586C24.8982 10.0586 26.3113 11.4718 26.3113 13.4114C26.3113 15.2957 24.8982 16.7366 23.0693 16.7366C21.2128 16.7366 19.8273 15.2957 19.8273 13.4114C19.8273 11.4718 21.2128 10.0586 23.0693 10.0586Z" fill="#ABACAD"/>
<path d="M35.5486 0.803578H31.6415V20.2003H35.5486V0.803578Z" fill="#ABACAD"/>
<path d="M47.5559 0.803578V8.53456C46.6138 7.12137 45.1452 6.31779 43.2332 6.31779C39.7141 6.31779 36.9155 9.47668 36.9155 13.3837C36.9155 17.2908 39.7141 20.4774 43.2332 20.4774C45.1452 20.4774 46.6138 19.6738 47.5559 18.2606V20.2003H51.463V0.803578H47.5559ZM44.1477 16.7366C42.2634 16.7366 40.7394 15.268 40.7394 13.3837C40.7394 11.5272 42.2634 10.0309 44.1477 10.0309C46.0596 10.0309 47.5559 11.4995 47.5559 13.3837C47.5559 15.2957 46.0596 16.7366 44.1477 16.7366Z" fill="#ABACAD"/>
<path d="M57.4078 0.803578H53.5007V20.2003H57.4078V0.803578Z" fill="#ABACAD"/>
<path d="M61.4315 0C60.1292 0 59.0485 1.08067 59.0485 2.35532C59.0485 3.65767 60.1292 4.73834 61.4315 4.73834C62.7339 4.73834 63.8145 3.65767 63.8145 2.35532C63.8145 1.08067 62.7339 0 61.4315 0ZM59.4918 6.59488V20.2003H63.3989V6.59488H59.4918Z" fill="#ABACAD"/>
<path d="M73.0754 6.31779C71.5237 6.31779 70.249 7.06595 69.39 8.3683V6.59488H65.483V20.2003H69.39V12.9958C69.39 11.2224 70.443 10.0586 72.0778 10.0586C73.685 10.0586 74.7657 11.2224 74.7657 12.9958V20.2003H78.6727V12.497C78.6727 8.64539 76.5668 6.31779 73.0754 6.31779Z" fill="#ABACAD"/>
<path d="M93.7799 12.8018C93.7799 9.17188 90.8981 6.31779 87.2127 6.31779C83.2502 6.31779 80.1468 9.36584 80.1468 13.3283C80.1468 17.3739 83.3056 20.4774 87.2958 20.4774C90.1222 20.4774 92.3944 19.4244 93.3919 17.6233L90.3439 15.7668C89.8728 16.598 88.5982 17.1522 87.379 17.1522C85.5224 17.1522 84.2478 16.1824 83.8875 14.3259H93.669C93.7522 13.7994 93.7799 13.2729 93.7799 12.8018ZM83.943 11.832C84.3032 10.3634 85.3839 9.47668 87.0187 9.47668C88.4596 9.47668 89.7066 10.4742 89.8728 11.832H83.943Z" fill="#ABACAD"/>
<path d="M100.132 20.4774C103.291 20.4774 105.508 18.6486 105.508 16.127C105.425 11.2501 98.0541 12.3308 98.0264 10.3634C98.0264 9.75378 98.6914 9.28271 99.6889 9.28271C101.158 9.28271 102.876 9.89233 103.929 10.6959L105.037 7.86953C103.679 6.78885 101.767 6.31779 99.8552 6.31779C96.6409 6.31779 94.3687 8.28517 94.3964 10.8345C94.4518 15.8499 101.767 14.2982 101.795 16.3764C101.795 17.0137 101.019 17.4848 99.7998 17.4848C98.1372 17.4848 96.4746 16.986 95.2 16.0439L94.0362 18.7594C95.671 19.9232 97.8047 20.4774 100.132 20.4774Z" fill="#ABACAD"/>
</svg>
