<svg width="93" height="17" viewBox="0 0 93 17" fill="none" xmlns="http://www.w3.org/2000/svg">
<path d="M12.7533 15.8368L8.89932 9.72928C10.3525 9.01323 11.2581 7.53901 11.2581 5.64359C11.2581 3.11636 9.08886 1.09457 6.60375 1.09457H0.91748V15.8368H4.0344V10.2137H5.63498L8.9625 15.8368H12.7533ZM4.0344 4.10619H6.28785C7.29874 4.10619 8.09903 4.8433 8.09903 5.79101C8.09903 6.78084 7.29874 7.51795 6.28785 7.51795H4.0344V4.10619Z" fill="#ABACAD"/>
<path d="M17.3285 5.28557C14.2748 5.28557 11.9582 7.60219 11.9582 10.677C11.9582 13.7518 14.2748 16.0474 17.3285 16.0474C20.3612 16.0474 22.6989 13.7518 22.6989 10.677C22.6989 7.60219 20.3612 5.28557 17.3285 5.28557ZM17.3285 8.1287C18.7185 8.1287 19.7926 9.20277 19.7926 10.677C19.7926 12.1091 18.7185 13.2042 17.3285 13.2042C15.9175 13.2042 14.8645 12.1091 14.8645 10.677C14.8645 9.20277 15.9175 8.1287 17.3285 8.1287Z" fill="#ABACAD"/>
<path d="M30.1672 13.0779C29.9356 13.1621 29.5354 13.2253 29.2406 13.2253C28.3771 13.2253 27.64 12.6145 27.64 11.6458V8.31824H30.1883V5.49617H27.64V2.7794H24.6705V5.49617H22.754V8.31824H24.6705V11.7932C24.6705 14.4678 26.3764 16.0052 28.7983 16.0052C29.3459 16.0052 29.9356 15.8999 30.3146 15.7104L30.1672 13.0779Z" fill="#ABACAD"/>
<path d="M38.6334 5.49617V6.97039C37.9174 5.89631 36.8012 5.28557 35.348 5.28557C32.6734 5.28557 30.5463 7.68644 30.5463 10.6559C30.5463 13.6254 32.6734 16.0474 35.348 16.0474C36.8012 16.0474 37.9174 15.4366 38.6334 14.3625V15.8368H41.6029V5.49617H38.6334ZM36.043 13.2042C34.6109 13.2042 33.4526 12.088 33.4526 10.6559C33.4526 9.24489 34.6109 8.10764 36.043 8.10764C37.4962 8.10764 38.6334 9.22383 38.6334 10.6559C38.6334 12.1091 37.4962 13.2042 36.043 13.2042Z" fill="#ABACAD"/>
<path d="M48.4378 0.883972C45.4051 0.883972 43.2781 2.82152 43.2781 5.32769C43.2781 10.6349 50.7544 8.99217 50.7544 11.4773C50.7544 12.425 49.8489 13.0147 48.5221 13.0147C46.7741 13.0147 45.5315 12.1302 44.4153 10.9718L42.4146 13.2463C43.6782 14.8469 46.2475 16.0474 48.5221 16.0474C51.9759 16.0474 53.9556 13.7939 53.9556 11.4562C53.9556 6.08586 46.416 7.60219 46.416 5.09602C46.416 4.37997 47.1321 3.89559 48.1851 3.89559C49.3855 3.89559 50.8176 4.5274 51.9128 5.60147L53.7239 3.13742C52.6077 1.85274 50.3332 0.883972 48.4378 0.883972Z" fill="#ABACAD"/>
<path d="M60.8797 5.28557C59.7003 5.28557 58.7315 5.85419 58.0786 6.84403V1.09457H55.1091V15.8368H58.0786V10.3611C58.0786 9.01323 58.8789 8.1287 60.1215 8.1287C61.343 8.1287 62.1643 9.01323 62.1643 10.3611V15.8368H65.1338V9.982C65.1338 7.05463 63.5332 5.28557 60.8797 5.28557Z" fill="#ABACAD"/>
<path d="M71.6245 5.28557C68.5708 5.28557 66.2541 7.60219 66.2541 10.677C66.2541 13.7518 68.5708 16.0474 71.6245 16.0474C74.6572 16.0474 76.9949 13.7518 76.9949 10.677C76.9949 7.60219 74.6572 5.28557 71.6245 5.28557ZM71.6245 8.1287C73.0145 8.1287 74.0885 9.20277 74.0885 10.677C74.0885 12.1091 73.0145 13.2042 71.6245 13.2042C70.2135 13.2042 69.1604 12.1091 69.1604 10.677C69.1604 9.20277 70.2135 8.1287 71.6245 8.1287Z" fill="#ABACAD"/>
<path d="M80.4481 15.8368H82.7436L84.8497 10.1715L86.9346 15.8368H89.2723L93 5.49617H89.7988L88.093 11.1614L86.008 5.49617H83.6914L81.6275 11.1614L79.9005 5.49617H76.7204L80.4481 15.8368Z" fill="#ABACAD"/>
</svg>
