<svg width="100" height="18" viewBox="0 0 100 18" fill="none" xmlns="http://www.w3.org/2000/svg">
<path d="M8.72706 14.1071C8.45434 14.2063 7.98328 14.2807 7.63618 14.2807C6.61968 14.2807 5.75193 13.5617 5.75193 12.4212V8.50393H8.75186V5.18169H5.75193V1.98343H2.25614V5.18169H0V8.50393H2.25614V12.5947C2.25614 15.7434 4.26436 17.5533 7.11553 17.5533C7.76015 17.5533 8.45434 17.4293 8.90061 17.2062L8.72706 14.1071Z" fill="#ABACAD"/>
<path d="M16.648 4.93377C15.5819 4.93377 14.2431 5.65276 13.7224 6.69406V5.18169H10.2266V17.355H13.7224V11.3551C13.7224 9.19813 15.1356 8.30559 16.3009 8.30559C16.8463 8.30559 17.3918 8.40476 17.8628 8.6031L18.2595 5.20649C17.8876 5.03294 17.2926 4.93377 16.648 4.93377Z" fill="#ABACAD"/>
<path d="M27.3712 5.18169V6.91719C26.5283 5.65276 25.2143 4.93377 23.5036 4.93377C20.3549 4.93377 17.8508 7.76014 17.8508 11.2559C17.8508 14.7517 20.3549 17.6029 23.5036 17.6029C25.2143 17.6029 26.5283 16.8839 27.3712 15.6195V17.355H30.867V5.18169H27.3712ZM24.3217 14.2559C22.6358 14.2559 21.2722 12.9418 21.2722 11.2559C21.2722 9.59481 22.6358 8.256 24.3217 8.256C26.0324 8.256 27.3712 9.57002 27.3712 11.2559C27.3712 12.9666 26.0324 14.2559 24.3217 14.2559Z" fill="#ABACAD"/>
<path d="M44.7148 5.18169H40.8967L38.1943 12.5947L35.4423 5.18169H31.649L36.7067 17.355H39.6818L44.7148 5.18169Z" fill="#ABACAD"/>
<path d="M56.3379 10.7353C56.3379 7.48742 53.7595 4.93377 50.462 4.93377C46.9167 4.93377 44.1399 7.66097 44.1399 11.2063C44.1399 14.8261 46.9663 17.6029 50.5364 17.6029C53.0653 17.6029 55.0983 16.6608 55.9908 15.0492L53.2636 13.3881C52.8422 14.1319 51.7017 14.6277 50.6108 14.6277C48.9497 14.6277 47.8092 13.76 47.4869 12.0989H56.2388C56.3131 11.6278 56.3379 11.1568 56.3379 10.7353ZM47.5365 9.86753C47.8588 8.55351 48.8257 7.76014 50.2885 7.76014C51.5777 7.76014 52.6934 8.65269 52.8422 9.86753H47.5365Z" fill="#ABACAD"/>
<path d="M61.1677 0H57.6719V17.355H61.1677V0Z" fill="#ABACAD"/>
<path d="M74.5887 10.7353C74.5887 7.48742 72.0103 4.93377 68.7128 4.93377C65.1675 4.93377 62.3907 7.66097 62.3907 11.2063C62.3907 14.8261 65.2171 17.6029 68.7872 17.6029C71.3161 17.6029 73.3491 16.6608 74.2416 15.0492L71.5144 13.3881C71.0929 14.1319 69.9525 14.6277 68.8616 14.6277C67.2005 14.6277 66.06 13.76 65.7377 12.0989H74.4896C74.5639 11.6278 74.5887 11.1568 74.5887 10.7353ZM65.7873 9.86753C66.1096 8.55351 67.0765 7.76014 68.5393 7.76014C69.8285 7.76014 70.9442 8.65269 71.0929 9.86753H65.7873Z" fill="#ABACAD"/>
<path d="M82.344 4.93377C81.2779 4.93377 79.9391 5.65276 79.4185 6.69406V5.18169H75.9227V17.355H79.4185V11.3551C79.4185 9.19813 80.8317 8.30559 81.9969 8.30559C82.5424 8.30559 83.0878 8.40476 83.5589 8.6031L83.9556 5.20649C83.5837 5.03294 82.9886 4.93377 82.344 4.93377Z" fill="#ABACAD"/>
<path d="M88.9257 17.6029C91.7521 17.6029 93.7355 15.9666 93.7355 13.7104C93.6612 9.34688 87.0663 10.3138 87.0415 8.55352C87.0415 8.00807 87.6365 7.58659 88.5291 7.58659C89.8431 7.58659 91.3802 8.13204 92.3224 8.85103L93.3141 6.32216C92.0992 5.35524 90.3885 4.93377 88.6778 4.93377C85.8019 4.93377 83.7688 6.69406 83.7936 8.97499C83.8432 13.4625 90.3885 12.0741 90.4133 13.9336C90.4133 14.5038 89.7191 14.9253 88.6282 14.9253C87.1407 14.9253 85.6531 14.479 84.5126 13.636L83.4713 16.0657C84.9341 17.107 86.8431 17.6029 88.9257 17.6029Z" fill="#ABACAD"/>
<path d="M97.2776 17.6029C98.5668 17.6029 99.5586 16.6112 99.5586 15.3715C99.5586 14.1319 98.5668 13.165 97.2776 13.165C96.0132 13.165 95.0215 14.1319 95.0215 15.3715C95.0215 16.6112 96.0132 17.6029 97.2776 17.6029Z" fill="#ABACAD"/>
</svg>
