<svg width="68" height="13" viewBox="0 0 68 13" fill="none" xmlns="http://www.w3.org/2000/svg">
<path d="M4.38832 12.4212H7.09074L9.57002 5.75193L12.0245 12.4212H14.7765L19.1648 0.247928H15.3963L13.3881 6.91719L10.9336 0.247928H8.20642L5.77672 6.91719L3.74371 0.247928H0L4.38832 12.4212Z" fill="#ABACAD"/>
<path d="M28.3548 0.247928V1.98342C27.5119 0.718991 26.1978 0 24.4871 0C21.3385 0 18.8344 2.82638 18.8344 6.32216C18.8344 9.81795 21.3385 12.6691 24.4871 12.6691C26.1978 12.6691 27.5119 11.9501 28.3548 10.6857V12.4212H31.8506V0.247928H28.3548ZM25.3053 9.32209C23.6194 9.32209 22.2558 8.00807 22.2558 6.32216C22.2558 4.66105 23.6194 3.32224 25.3053 3.32224C27.016 3.32224 28.3548 4.63625 28.3548 6.32216C28.3548 8.03287 27.016 9.32209 25.3053 9.32209Z" fill="#ABACAD"/>
<path d="M45.6983 0.247928H41.8803L39.1778 7.66097L36.4258 0.247928H32.6325L37.6903 12.4212H40.6654L45.6983 0.247928Z" fill="#ABACAD"/>
<path d="M57.3215 5.80151C57.3215 2.55366 54.7431 0 51.4456 0C47.9003 0 45.1235 2.72721 45.1235 6.27258C45.1235 9.89233 47.9498 12.6691 51.52 12.6691C54.0489 12.6691 56.0819 11.727 56.9744 10.1155L54.2472 8.45434C53.8257 9.19813 52.6853 9.69398 51.5944 9.69398C49.9333 9.69398 48.7928 8.82623 48.4705 7.16512H57.2224C57.2967 6.69405 57.3215 6.22299 57.3215 5.80151ZM48.5201 4.93377C48.8424 3.61975 49.8093 2.82638 51.2721 2.82638C52.5613 2.82638 53.677 3.71892 53.8257 4.93377H48.5201Z" fill="#ABACAD"/>
<path d="M63.0053 12.6691C65.8316 12.6691 67.8151 11.0328 67.8151 8.77665C67.7407 4.41312 61.1458 5.38004 61.121 3.61975C61.121 3.07431 61.716 2.65283 62.6086 2.65283C63.9226 2.65283 65.4598 3.19827 66.4019 3.91726L67.3936 1.3884C66.1787 0.421477 64.468 0 62.7573 0C59.8814 0 57.8484 1.76029 57.8732 4.04123C57.9227 8.52872 64.468 7.14032 64.4928 8.99978C64.4928 9.57002 63.7986 9.9915 62.7078 9.9915C61.2202 9.9915 59.7326 9.54523 58.5922 8.70227L57.5509 11.132C59.0136 12.1733 60.9227 12.6691 63.0053 12.6691Z" fill="#ABACAD"/>
</svg>
