<svg width="91" height="91" viewBox="0 0 91 91" fill="none" xmlns="http://www.w3.org/2000/svg">
<g filter="url(#filter0_b_329_855)">
<circle cx="45.5" cy="45.5" r="45.5" fill="#34384C"/>
</g>
<g clip-path="url(#clip0_329_855)" filter="url(#filter1_d_329_855)">
<path d="M36 36H49.3333C50.6594 36 51.9312 36.5268 52.8689 37.4645C53.8066 38.4021 54.3333 39.6739 54.3333 41C54.3333 42.3261 53.8066 43.5979 52.8689 44.5355C51.9312 45.4732 50.6594 46 49.3333 46C50.6594 46 51.9312 46.5268 52.8689 47.4645C53.8066 48.4021 54.3333 49.6739 54.3333 51C54.3333 52.3261 53.8066 53.5979 52.8689 54.5355C51.9312 55.4732 50.6594 56 49.3333 56H36" stroke="#2962FF" stroke-width="2.5" stroke-linecap="round" stroke-linejoin="round"/>
<path d="M39.3333 36V56" stroke="#2962FF" stroke-width="2.5" stroke-linecap="round" stroke-linejoin="round"/>
<path d="M39.3333 46H49.3333" stroke="#2962FF" stroke-width="2.5" stroke-linecap="round" stroke-linejoin="round"/>
<path d="M41 31V36" stroke="#2962FF" stroke-width="2.5" stroke-linecap="round" stroke-linejoin="round"/>
<path d="M47.6667 31V36" stroke="#2962FF" stroke-width="2.5" stroke-linecap="round" stroke-linejoin="round"/>
<path d="M41 56V61" stroke="#2962FF" stroke-width="2.5" stroke-linecap="round" stroke-linejoin="round"/>
<path d="M47.6667 56V61" stroke="#2962FF" stroke-width="2.5" stroke-linecap="round" stroke-linejoin="round"/>
</g>
<defs>
<filter id="filter0_b_329_855" x="-14" y="-14" width="119" height="119" filterUnits="userSpaceOnUse" color-interpolation-filters="sRGB">
<feFlood flood-opacity="0" result="BackgroundImageFix"/>
<feGaussianBlur in="BackgroundImageFix" stdDeviation="7"/>
<feComposite in2="SourceAlpha" operator="in" result="effect1_backgroundBlur_329_855"/>
<feBlend mode="normal" in="SourceGraphic" in2="effect1_backgroundBlur_329_855" result="shape"/>
</filter>
<filter id="filter1_d_329_855" x="22" y="22" width="48" height="48" filterUnits="userSpaceOnUse" color-interpolation-filters="sRGB">
<feFlood flood-opacity="0" result="BackgroundImageFix"/>
<feColorMatrix in="SourceAlpha" type="matrix" values="0 0 0 0 0 0 0 0 0 0 0 0 0 0 0 0 0 0 127 0" result="hardAlpha"/>
<feOffset/>
<feGaussianBlur stdDeviation="2"/>
<feColorMatrix type="matrix" values="0 0 0 0 0.160784 0 0 0 0 0.384314 0 0 0 0 1 0 0 0 1 0"/>
<feBlend mode="normal" in2="BackgroundImageFix" result="effect1_dropShadow_329_855"/>
<feBlend mode="normal" in="SourceGraphic" in2="effect1_dropShadow_329_855" result="shape"/>
</filter>
<clipPath id="clip0_329_855">
<rect width="40" height="40" fill="white" transform="translate(26 26)"/>
</clipPath>
</defs>
</svg>
