<svg width="91" height="91" viewBox="0 0 91 91" fill="none" xmlns="http://www.w3.org/2000/svg">
<g filter="url(#filter0_b_329_862)">
<circle cx="45.5" cy="45.5" r="45.5" fill="#34384C"/>
</g>
<g clip-path="url(#clip0_329_862)" filter="url(#filter1_d_329_862)">
<path d="M31 61V54.3334C31 53.0148 31.391 51.7259 32.1235 50.6296C32.8561 49.5332 33.8973 48.6787 35.1154 48.1742C36.3336 47.6696 37.6741 47.5376 38.9673 47.7948C40.2605 48.052 41.4484 48.687 42.3807 49.6193C43.3131 50.5517 43.948 51.7395 44.2052 53.0328C44.4625 54.326 44.3304 55.6664 43.8259 56.8846C43.3213 58.1028 42.4668 59.1439 41.3705 59.8765C40.2741 60.609 38.9852 61 37.6667 61H31Z" stroke="#FF50EE" stroke-width="2.5" stroke-linecap="round" stroke-linejoin="round"/>
<path d="M61 31C56.243 31.6507 51.75 33.5736 47.9951 36.5657C44.2402 39.5579 41.3628 43.5083 39.6667 48" stroke="#FF50EE" stroke-width="2.5" stroke-linecap="round" stroke-linejoin="round"/>
<path d="M61 31C60.3493 35.757 58.4264 40.25 55.4343 44.0049C52.4421 47.7598 48.4917 50.6372 44 52.3333" stroke="#FF50EE" stroke-width="2.5" stroke-linecap="round" stroke-linejoin="round"/>
<path d="M43.6667 41C46.9053 42.4948 49.5052 45.0947 51 48.3333" stroke="#FF50EE" stroke-width="2.5" stroke-linecap="round" stroke-linejoin="round"/>
</g>
<defs>
<filter id="filter0_b_329_862" x="-14" y="-14" width="119" height="119" filterUnits="userSpaceOnUse" color-interpolation-filters="sRGB">
<feFlood flood-opacity="0" result="BackgroundImageFix"/>
<feGaussianBlur in="BackgroundImageFix" stdDeviation="7"/>
<feComposite in2="SourceAlpha" operator="in" result="effect1_backgroundBlur_329_862"/>
<feBlend mode="normal" in="SourceGraphic" in2="effect1_backgroundBlur_329_862" result="shape"/>
</filter>
<filter id="filter1_d_329_862" x="22" y="22" width="48" height="48" filterUnits="userSpaceOnUse" color-interpolation-filters="sRGB">
<feFlood flood-opacity="0" result="BackgroundImageFix"/>
<feColorMatrix in="SourceAlpha" type="matrix" values="0 0 0 0 0 0 0 0 0 0 0 0 0 0 0 0 0 0 127 0" result="hardAlpha"/>
<feOffset/>
<feGaussianBlur stdDeviation="2"/>
<feColorMatrix type="matrix" values="0 0 0 0 1 0 0 0 0 0.313726 0 0 0 0 0.933333 0 0 0 1 0"/>
<feBlend mode="normal" in2="BackgroundImageFix" result="effect1_dropShadow_329_862"/>
<feBlend mode="normal" in="SourceGraphic" in2="effect1_dropShadow_329_862" result="shape"/>
</filter>
<clipPath id="clip0_329_862">
<rect width="40" height="40" fill="white" transform="translate(26 26)"/>
</clipPath>
</defs>
</svg>
