<svg width="91" height="91" viewBox="0 0 91 91" fill="none" xmlns="http://www.w3.org/2000/svg">
<g filter="url(#filter0_b_329_848)">
<circle cx="45.5" cy="45.5" r="45.5" fill="#34384C"/>
</g>
<g clip-path="url(#clip0_329_848)" filter="url(#filter1_d_329_848)">
<path d="M57.6667 42.6667L46 31L31 46H34.3333V57.6667C34.3333 58.5507 34.6845 59.3986 35.3096 60.0237C35.9348 60.6488 36.7826 61 37.6667 61H50.1667" stroke="#11CABE" stroke-width="2.5" stroke-linecap="round" stroke-linejoin="round"/>
<path d="M41 61V51C41 50.116 41.3512 49.2681 41.9763 48.643C42.6014 48.0179 43.4493 47.6667 44.3333 47.6667H47.6667C48.7683 47.6667 49.7467 48.2 50.3533 49.025" stroke="#11CABE" stroke-width="2.5" stroke-linecap="round" stroke-linejoin="round"/>
<path d="M57.6667 49.3333L54.3333 56H61L57.6667 62.6666" stroke="#11CABE" stroke-width="2.5" stroke-linecap="round" stroke-linejoin="round"/>
</g>
<defs>
<filter id="filter0_b_329_848" x="-14" y="-14" width="119" height="119" filterUnits="userSpaceOnUse" color-interpolation-filters="sRGB">
<feFlood flood-opacity="0" result="BackgroundImageFix"/>
<feGaussianBlur in="BackgroundImageFix" stdDeviation="7"/>
<feComposite in2="SourceAlpha" operator="in" result="effect1_backgroundBlur_329_848"/>
<feBlend mode="normal" in="SourceGraphic" in2="effect1_backgroundBlur_329_848" result="shape"/>
</filter>
<filter id="filter1_d_329_848" x="22" y="22" width="48" height="48" filterUnits="userSpaceOnUse" color-interpolation-filters="sRGB">
<feFlood flood-opacity="0" result="BackgroundImageFix"/>
<feColorMatrix in="SourceAlpha" type="matrix" values="0 0 0 0 0 0 0 0 0 0 0 0 0 0 0 0 0 0 127 0" result="hardAlpha"/>
<feOffset/>
<feGaussianBlur stdDeviation="2"/>
<feColorMatrix type="matrix" values="0 0 0 0 0.0666667 0 0 0 0 0.792157 0 0 0 0 0.745098 0 0 0 1 0"/>
<feBlend mode="normal" in2="BackgroundImageFix" result="effect1_dropShadow_329_848"/>
<feBlend mode="normal" in="SourceGraphic" in2="effect1_dropShadow_329_848" result="shape"/>
</filter>
<clipPath id="clip0_329_848">
<rect width="40" height="40" fill="white" transform="translate(26 26)"/>
</clipPath>
</defs>
</svg>
